<svg width="30" height="30" viewBox="0 0 30 30" fill="none" xmlns="http://www.w3.org/2000/svg">
<path d="M28.9525 12.12C28.531 11.614 28.0035 11.2067 27.4074 10.9267C26.8112 10.6468 26.1608 10.5012 25.5022 10.5H18.6616L19.5017 8.35505C19.8511 7.41587 19.9675 6.40596 19.8408 5.41194C19.7141 4.41791 19.3482 3.46945 18.7744 2.6479C18.2006 1.82636 17.4361 1.15626 16.5463 0.69508C15.6566 0.233901 14.6683 -0.00458913 13.6662 6.68867e-05C13.3776 0.000668928 13.0954 0.0844796 12.8532 0.24145C12.6111 0.398421 12.4194 0.62189 12.3011 0.885065L8.0257 10.5H4.50039C3.30681 10.5 2.16212 10.9741 1.31813 11.8181C0.474147 12.662 0 13.8066 0 15V25.5C0 26.6935 0.474147 27.8381 1.31813 28.682C2.16212 29.5259 3.30681 30 4.50039 30H23.5971C24.6499 29.9996 25.6692 29.6302 26.4778 28.956C27.2863 28.2818 27.8329 27.3455 28.0224 26.31L29.9276 15.81C30.0454 15.1611 30.0192 14.4942 29.8507 13.8565C29.6822 13.2189 29.3756 12.6261 28.9525 12.12ZM7.50065 27H4.50039C4.10253 27 3.72097 26.842 3.43964 26.5607C3.15831 26.2794 3.00026 25.8978 3.00026 25.5V15C3.00026 14.6022 3.15831 14.2207 3.43964 13.9394C3.72097 13.6581 4.10253 13.5 4.50039 13.5H7.50065V27ZM27.0023 15.27L25.0972 25.77C25.0333 26.1194 24.8474 26.4349 24.5727 26.6601C24.298 26.8854 23.9523 27.0058 23.5971 27H10.5009V12.315L14.5813 3.13506C15.0013 3.2575 15.3913 3.46567 15.7269 3.74643C16.0624 4.0272 16.336 4.37446 16.5305 4.7663C16.7251 5.15813 16.8362 5.58604 16.857 6.023C16.8779 6.45997 16.8079 6.8965 16.6514 7.30505L15.8564 9.45005C15.687 9.90343 15.6298 10.3911 15.6897 10.8713C15.7496 11.3516 15.9248 11.8103 16.2004 12.2081C16.476 12.606 16.8438 12.9313 17.2724 13.1563C17.7009 13.3813 18.1776 13.4992 18.6616 13.5H25.5022C25.7226 13.4997 25.9404 13.5479 26.14 13.6412C26.3396 13.7345 26.5163 13.8707 26.6573 14.04C26.8018 14.207 26.9077 14.4039 26.9673 14.6165C27.027 14.8291 27.0389 15.0523 27.0023 15.27Z" fill="#787676"/>
</svg>
